# AST/ASF file generated using VICON BodyLanguage
# -----------------------------------------------
:version 1.10
:name VICON
:units
  mass 1.0
  length 0.45
  angle deg
:documentation
   .ast/.asf automatically generated from VICON data using
   VICON BodyBuilder and BodyLanguage model FoxedUp or BRILLIANT.MOD
:root
   order TX TY TZ RX RY RZ
   axis XYZ
   position 0 0 0  
   orientation 0 0 0 
:bonedata
  begin
     id 1 
     name lhipjoint
     direction 0.440178 -0.822639 0.359871 
     length 2.53113 
     axis 0 0 0  XYZ
  end
  begin
     id 2 
     name lfemur
     direction 0.34202 -0.939693 0  
     length 7.88132  
     axis 0 0 20  XYZ
    dof rx ry rz
    limits (-160.0 20.0)
           (-70.0 70.0)
           (-60.0 70.0)
  end
  begin
     id 3 
     name ltibia
     direction 0.34202 -0.939693 0   
     length 8.43783   
     axis 0 0 20   XYZ
    dof rx
    limits (-10.0 170.0)
  end
  begin
     id 4 
     name lfoot
     direction 0.0886351 -0.243523 0.965837   
     length 2.63414   
     axis -90 7.62852e-016 20   XYZ
    dof rx rz
    limits (-45.0 90.0)
           (-70.0 20.0)
  end
  begin
     id 5 
     name ltoes
     direction 1.53703e-011 -4.21717e-011 1   
     length 1.31427   
     axis -90 7.62852e-016 20   XYZ
    dof rx
    limits (-90.0 20.0)
  end
  begin
     id 6 
     name rhipjoint
     direction -0.399779 -0.839773 0.367367   
     length 2.47948  
     axis 0 0 0  XYZ 
  end
  begin
     id 7 
     name rfemur
     direction -0.34202 -0.939693 0   
     length 7.74806   
     axis 0 0 -20   XYZ
    dof rx ry rz
    limits (-160.0 20.0)
           (-70.0 70.0)
           (-70.0 60.0)
  end
  begin
     id 8 
     name rtibia
     direction -0.34202 -0.939693 0   
     length 8.74432   
     axis 0 0 -20   XYZ
    dof rx
    limits (-10.0 170.0)
 end
 begin
     id 9 
     name rfoot
     direction -0.108514 -0.298139 0.948334   
     length 2.66102  
     axis -90 -7.62852e-016 -20   XYZ
    dof rx rz
    limits (-45.0 90.0)
           (-20.0 70.0)
  end
  begin
     id 10 
     name rtoes
     direction -1.53392e-011 -4.22077e-011 1   
     length 1.31983   
     axis -90 -7.62852e-016 -20   XYZ
    dof rx
    limits (-90.0 20.0)
  end
  begin
     id 11 
     name lowerback
     direction 0.0113257 0.999866 0.0118602   
     length 2.58694   
     axis 0 0 0   XYZ
    dof rx ry rz
    limits (-20.0 45.0)
           (-30.0 30.0)
           (-30.0 30.0)
  end
  begin
     id 12 
     name upperback
     direction -0.0164747 0.995193 -0.0965375   
     length 2.52368   
     axis 0 0 0   XYZ
    dof rx ry rz
    limits (-20.0 45.0)
           (-30.0 30.0)
           (-30.0 30.0)
  end
  begin
     id 13 
     name thorax
     direction -0.0194301 0.99433 -0.104552   
     length 2.56099   
     axis 0 0 0   XYZ
    dof rx ry rz
    limits (-20.0 45.0)
           (-30.0 30.0)
           (-30.0 30.0)
  end
  begin
     id 14 
     name lowerneck
     direction 0.0148543 0.995587 -0.092657   
     length 1.71582   
     axis 0 0 0   XYZ
    dof rx ry rz
    limits (-20.0 45.0)
           (-30.0 30.0)
           (-30.0 30.0)
  end
  begin
     id 15 
     name upperneck
     direction -0.0135467 0.993656 -0.111639   
     length 1.68937   
     axis 0 0 0   XYZ
    dof rx ry rz
    limits (-20.0 45.0)
           (-30.0 30.0)
           (-30.0 30.0)
  end
  begin
     id 16
     name head
     direction -0.00615349 0.999547 -0.029448  
     length 1.7462  
     axis 0 0 0   XYZ
    dof rx ry rz
    limits (-20.0 45.0)
           (-30.0 30.0)
           (-30.0 30.0)
  end
  begin
     id 17 
     name lclavicle
     direction 0.988267 0.149885 0.0293713  
     length 4.47222  
     axis 0 0 0   XYZ
    dof ry rz
    limits (-20.0 10.0)
           (0.0 20.0)
  end
  begin
     id 18 
     name lhumerus
     direction 1 -4.48986e-011 -1.14833e-027   
     length 5.37148   
     axis 180 -30 -90   XYZ
    dof rx ry rz
    limits (-60.0 90.0)
           (-90.0 90.0)
           (-90.0 90.0)
  end
  begin
     id 19
     name lradius
     direction 0.999998 0.00170963 -0.000987055   
     length 3.94212   
     axis 180 -30 -90   XYZ
    dof rx
    limits (-10.0 170.0)
  end
  begin
     id 20
     name lwrist
     direction 0.999998 7.53149e-005 -0.00194706   
     length 1.97106   
     axis 4.65056e-015 90 90   XYZ
    dof ry
    limits (-180.0 0.0)
 end
  begin
     id 21 
     name lhand
     direction 1 -4.48973e-011 -1.31746e-026   
     length 1.17917   
     axis 8.4065e-015 90 90   XYZ
    dof rx rz
    limits (-90.0 90.0)
           (-45.0 45.0)
  end
  begin
     id 22 
     name lfingers
     direction 1 -4.49107e-011 -2.63492e-026   
     length 0.950679   
     axis 1.6813e-014 90 90   XYZ
    dof rx
    limits (0.0 90.0)
  end
  begin
     id 23
     name lthumb
     direction 0.707107 -6.35048e-011 0.707107   
     length 1.36499   
     axis -90 45 2.85299e-015   XYZ
    dof rx rz
    limits (-45.0 45.0)
           (-45.0 45.0)
  end
  begin
     id 24 
     name rclavicle
     direction -0.996699 0.0642895 -0.0495725   
     length 4.62611  
     axis 0 0 0   XYZ 
    dof ry rz
    limits (-10.0 20.0)
           (-20.0 0.0)
  end
  begin
     id 25 
     name rhumerus
     direction -1 -4.48919e-011 -2.41059e-027  
     length 5.4981   
     axis 180 30 90   XYZ
    dof rx ry rz
    limits (-90.0 60.0)
           (-90.0 90.0)
           (-90.0 90.0)
  end
  begin
     id 26 
     name rradius
     direction -0.999999 0.00118101 -0.000681858   
     length 3.48381   
     axis 180 30 90   XYZ
    dof rx
    limits (-10.0 170.0)
  end
  begin
     id 27 
     name rwrist
     direction -0.999999 0.000321823 -0.00132288   
     length 1.7419   
     axis 4.65056e-015 -90 -90   XYZ
    dof ry
    limits (-180.0 0.0)
  end
  begin
     id 28
     name rhand
     direction -1 -4.49022e-011 -1.31746e-026   
     length 1.34932   
     axis 8.4065e-015 -90 -90   XYZ
    dof rx rz
    limits (-90.0 90.0)
           (-45.0 45.0)
  end
  begin
     id 29
     name rfingers
     direction -1 -4.49178e-011 -2.63492e-026   
     length 1.08785   
     axis 1.6813e-014 -90 -90   XYZ
    dof rx
    limits (0.0 90.0)
  end
  begin
     id 30
     name rthumb
     direction -0.707107 -6.34713e-011 0.707107   
     length 1.56195   
     axis -90 -45 -2.85299e-015   XYZ
    dof rx rz
    limits (-45.0 45.0)
           (-45.0 45.0)
  end
:hierarchy
  begin
    root lhipjoint rhipjoint lowerback
    lhipjoint lfemur
    lfemur ltibia
    ltibia lfoot
    lfoot ltoes
    rhipjoint rfemur
    rfemur rtibia
    rtibia rfoot
    rfoot rtoes
    lowerback upperback
    upperback thorax
    thorax lowerneck lclavicle rclavicle
    lowerneck upperneck
    upperneck head
    lclavicle lhumerus
    lhumerus lradius
    lradius lwrist
    lwrist lhand lthumb
    lhand lfingers
    rclavicle rhumerus
    rhumerus rradius
    rradius rwrist
    rwrist rhand rthumb
    rhand rfingers
  end

#!OML:ASF X:\für Bonn\!DataBase\2005_08_10_Bjorn_Final\c3d\bjorn.ASF
:FULLY-SPECIFIED
:DEGREES
1
root 0.360734 19.1913 2.88373 -177.912 -0.797382 -179.409
lowerback -17.2971 1.6105 1.2103
upperback 4.85345 1.85932 0.0714484
thorax 15.3459 0.947307 -0.0472903
lowerneck -4.65357 -0.282256 6.29235
upperneck 19.3098 -1.19446 -5.4919
head 6.55357 -0.995245 -2.95369
rclavicle 2.62225e-015 2.04997e-015
rhumerus 59.7733 0.614842 -90.8257
rradius -0.23098
rwrist 53.574
rhand -18.4235 2.43522
rfingers 7.12502
rthumb 7.8616 -27.3986
lclavicle 2.62225e-015 2.04997e-015
lhumerus 56.8265 -12.2253 91.7309
lradius 3.78098
lwrist -69.919
lhand -19.5642 -3.27516
lfingers 7.12502
lthumb 6.76051 26.5969
rfemur -13.3677 -12.6224 16.7527
rtibia 30.7253
rfoot -16.6289 12.0668
rtoes -6.47755
lfemur -13.3332 11.6456 -17.2972
ltibia 31.1822
lfoot -13.693 -13.733
ltoes 3.13769
2
root 0.364027 19.1904 2.87102 -177.871 -0.76625 -179.427
lowerback -17.2128 1.62721 1.22464
upperback 4.82653 1.88131 0.0632983
thorax 15.2626 0.959635 -0.0608301
lowerneck -4.58529 -0.338703 6.13976
upperneck 19.1136 -1.24212 -5.45727
head 6.47662 -1.01955 -2.91373
rclavicle -1.37231e-014 2.68981e-015
rhumerus 59.9131 0.559334 -90.6862
rradius -0.1075
rwrist 53.6852
rhand -18.2406 2.5578
rfingers 7.12502
rthumb 8.03813 -27.2693
lclavicle -1.37231e-014 2.68981e-015
lhumerus 57.0335 -12.2601 91.6786
lradius 3.845
lwrist -70.0383
lhand -19.6136 -2.98022
lfingers 7.12502
lthumb 6.71279 26.8934
rfemur -13.3891 -12.7198 16.7423
rtibia 30.7553
rfoot -16.6791 12.1785
rtoes -6.41422
lfemur -13.3173 11.4435 -17.3225
ltibia 31.1762
lfoot -13.8202 -13.5339
ltoes 2.85704
3
root 0.368106 19.1897 2.85914 -177.811 -0.726113 -179.428
lowerback -17.1418 1.64205 1.2483
upperback 4.7889 1.89696 0.0672281
thorax 15.1746 0.969193 -0.0677287
lowerneck -4.51255 -0.392308 5.93095
upperneck 18.945 -1.28772 -5.39828
head 6.4087 -1.04617 -2.85713
rclavicle 1.06521e-014 7.0817e-016
rhumerus 60.0573 0.534836 -90.5484
rradius 0.000579113
rwrist 53.8684
rhand -18.0608 2.66941
rfingers 7.12502
rthumb 8.21161 -27.151
lclavicle 1.06521e-014 7.0817e-016
lhumerus 57.2042 -12.2748 91.6377
lradius 3.96726
lwrist -70.1211
lhand -19.6218 -2.72096
lfingers 7.12502
lthumb 6.70489 27.1529
rfemur -13.4374 -12.8592 16.7565
rtibia 30.79
rfoot -16.689 12.3255
rtoes -6.35471
lfemur -13.3204 11.2761 -17.328
ltibia 31.1649
lfoot -13.9381 -13.3642
ltoes 2.71162
4
root 0.371039 19.1889 2.84741 -177.771 -0.695816 -179.449
lowerback -17.0538 1.65364 1.2739
upperback 4.77689 1.90976 0.0547174
thorax 15.1076 0.978507 -0.0952718
lowerneck -4.51674 -0.44354 5.76117
upperneck 18.8073 -1.33152 -5.36656
head 6.36391 -1.071 -2.81741
rclavicle -1.12189e-014 1.98785e-015
rhumerus 60.231 0.496304 -90.4165
rradius 0.0997749
rwrist 54.011
rhand -17.9166 2.77494
rfingers 7.12502
rthumb 8.35085 -27.04
lclavicle -1.12189e-014 1.98785e-015
lhumerus 57.4357 -12.2791 91.5613
lradius 4.06134
lwrist -70.2206
lhand -19.6822 -2.51858
lfingers 7.12502
lthumb 6.64658 27.3571
rfemur -13.4657 -12.9811 16.7416
rtibia 30.8218
rfoot -16.7212 12.4666
rtoes -6.32089
lfemur -13.3041 11.0318 -17.3606
ltibia 31.1507
lfoot -14.0994 -13.0939
ltoes 2.39175
5
root 0.375009 19.187 2.83673 -177.71 -0.644523 -179.466
lowerback -16.9583 1.68331 1.29439
upperback 4.74964 1.94931 0.0377964
thorax 15.0183 0.999979 -0.11744
lowerneck -4.4997 -0.49992 5.57573
upperneck 18.6489 -1.38493 -5.2988
head 6.30905 -1.09798 -2.76337
rclavicle 1.01209e-014 -1.10574e-015
rhumerus 60.3923 0.422446 -90.2852
rradius 0.237991
rwrist 54.1872
rhand -17.7347 2.81944
rfingers 7.12502
rthumb 8.52634 -26.9884
lclavicle 1.01209e-014 -1.10574e-015
lhumerus 57.7143 -12.317 91.4807
lradius 4.06514
lwrist -70.2079
lhand -19.8274 -2.34609
lfingers 7.12502
lthumb 6.50645 27.534
rfemur -13.5216 -13.0511 16.7362
rtibia 30.8533
rfoot -16.7073 12.6077
rtoes -6.03051
lfemur -13.3079 10.8748 -17.3868
ltibia 31.1343
lfoot -14.1913 -12.9236
ltoes 2.34793
6
root 0.379099 19.1871 2.8274 -177.65 -0.603733 -179.486
lowerback -16.8451 1.68678 1.29276
upperback 4.72663 1.95577 0.0406469
thorax 14.9209 1.00297 -0.11506
lowerneck -4.52394 -0.541173 5.39461
upperneck 18.5544 -1.41492 -5.28788
head 6.28245 -1.12 -2.72905
rclavicle 1.76903e-014 1.09332e-015
rhumerus 60.571 0.397377 -90.1327
rradius 0.336963
rwrist 54.3309
rhand -17.721 2.85776
rfingers 7.12502
rthumb 8.53954 -26.9496
lclavicle 1.76903e-014 1.09332e-015
lhumerus 57.9756 -12.2963 91.413
lradius 4.12623
lwrist -70.2259
lhand -19.9419 -2.24275
lfingers 7.12502
lthumb 6.39587 27.6407
rfemur -13.5777 -13.1249 16.7363
rtibia 30.8797
rfoot -16.7429 12.7035
rtoes -6.01589
lfemur -13.3166 10.6005 -17.4219
ltibia 31.1132
lfoot -14.3278 -12.611
ltoes 1.95575
7
root 0.382684 19.1871 2.81951 -177.599 -0.562225 -179.507
lowerback -16.7163 1.71235 1.31166
upperback 4.71798 1.98988 0.0247468
thorax 14.8334 1.02161 -0.137571
lowerneck -4.56873 -0.595333 5.18723
upperneck 18.437 -1.46978 -5.19564
head 6.25222 -1.14762 -2.66539
rclavicle -1.82105e-014 -3.55328e-015
rhumerus 60.7493 0.311573 -89.9881
rradius 0.479365
rwrist 54.477
rhand -17.7417 2.83706
rfingers 7.12502
rthumb 8.51959 -26.9711
lclavicle -1.82105e-014 -3.55328e-015
lhumerus 58.3007 -12.3402 91.3339
lradius 4.13968
lwrist -70.2318
lhand -20.0874 -2.2355
lfingers 7.12502
lthumb 6.25542 27.6521
rfemur -13.6306 -13.2679 16.7283
rtibia 30.9072
rfoot -16.7448 12.8424
rtoes -6.07682
lfemur -13.3133 10.3545 -17.4613
ltibia 31.0894
lfoot -14.4791 -12.2984
ltoes 1.49843
8
root 0.38673 19.1873 2.81257 -177.549 -0.512802 -179.506
lowerback -16.5609 1.74798 1.36914
upperback 4.69915 2.03129 -0.00390137
thorax 14.7197 1.04804 -0.195224
lowerneck -4.66757 -0.643807 5.01161
upperneck 18.3895 -1.52875 -5.08266
head 6.25374 -1.17524 -2.60312
rclavicle -3.69289e-014 -1.72694e-015
rhumerus 60.9692 0.211174 -89.8681
rradius 0.518161
rwrist 54.5756
rhand -17.8546 2.81388
rfingers 7.12502
rthumb 8.41066 -26.9987
lclavicle -3.69289e-014 -1.72694e-015
lhumerus 58.6297 -12.4 91.2279
lradius 4.12254
lwrist -70.1056
lhand -20.2162 -2.27031
lfingers 7.12502
lthumb 6.13106 27.621
rfemur -13.6733 -13.2304 16.7514
rtibia 30.9238
rfoot -16.7602 12.863
rtoes -5.86874
lfemur -13.3136 10.0096 -17.4766
ltibia 31.0672
lfoot -14.6234 -11.9311
ltoes 1.35025
